<svg width="32" height="32" viewBox="0 0 32 32" fill="none" xmlns="http://www.w3.org/2000/svg">
<path d="M27.3137 4.68625C24.2917 1.66431 20.2738 0 16 0C11.7262 0 7.70819 1.66431 4.68625 4.68625C1.66425 7.70825 0 11.7262 0 16C0 20.2738 1.66425 24.2917 4.68625 27.3137C7.70825 30.3357 11.7262 32 16 32C20.2738 32 24.2917 30.3357 27.3137 27.3137C30.3357 24.2917 32 20.2738 32 16C32 11.7262 30.3357 7.70831 27.3137 4.68625ZM16 30.125C8.21144 30.125 1.875 23.7886 1.875 16C1.875 8.21144 8.21144 1.875 16 1.875C23.7886 1.875 30.125 8.21144 30.125 16C30.125 23.7886 23.7886 30.125 16 30.125Z" fill="#CDDD84"/>
<path d="M23.6438 10.8662C23.2777 10.5002 22.6841 10.5002 22.318 10.8663L14.0393 19.1449L9.68141 14.787C9.31534 14.4209 8.72172 14.4209 8.3556 14.787C7.98947 15.1531 7.98947 15.7467 8.3556 16.1128L13.3764 21.1336C13.5595 21.3167 13.7994 21.4082 14.0393 21.4082C14.2792 21.4082 14.5192 21.3166 14.7022 21.1336L23.6438 12.192C24.0099 11.8259 24.0099 11.2323 23.6438 10.8662Z" fill="#CDDD84"/>
</svg>
