<svg width="79" height="80" viewBox="0 0 79 80" fill="none" xmlns="http://www.w3.org/2000/svg">
<g clip-path="url(#clip0)">
<path d="M18.5931 10.2227C8.69514 10.2227 0.673828 18.3745 0.673828 28.4334C0.673828 32.3252 1.88632 35.9247 3.93188 38.8839V53.2663C3.93188 56.925 6.84783 59.8884 10.448 59.8884C10.448 65.3748 14.8235 69.8215 20.2221 69.8215C25.6207 69.8215 29.9963 65.3748 29.9963 59.8884H49.5445C49.5445 65.3748 53.9201 69.8215 59.3187 69.8215C64.7173 69.8215 69.0928 65.3748 69.0928 59.8884C69.5429 59.8884 69.9794 59.8407 70.4037 59.7526C73.3736 59.1353 75.6089 56.4676 75.6089 53.2663V43.3331L66.732 25.297C66.1814 24.1745 65.0588 23.4668 63.824 23.4668H52.8026C52.8026 19.8081 49.8866 16.8448 46.2865 16.8448H32.4143C29.1279 12.8017 24.1575 10.2227 18.5931 10.2227ZM18.5931 16.017C25.3307 16.017 30.8108 21.5862 30.8108 28.4334C30.8108 35.2807 25.3307 40.8498 18.5931 40.8498C11.8554 40.8498 6.37541 35.2807 6.37541 28.4334C6.37541 21.5862 11.8554 16.017 18.5931 16.017ZM18.6185 20.4597L15.8059 29.093L21.5393 35.0102L25.0201 31.5311L21.3803 27.7738L23.2574 22.0183L18.6185 20.4597ZM52.8026 29.2612H62.3095L69.2328 43.3331H52.8026V29.2612ZM20.2221 55.7496C22.4669 55.7496 24.2947 57.6071 24.2947 59.8884C24.2947 62.1697 22.4669 64.0272 20.2221 64.0272C17.9773 64.0272 16.1496 62.1697 16.1496 59.8884C16.1496 57.6071 17.9773 55.7496 20.2221 55.7496ZM59.3187 55.7496C61.5635 55.7496 63.3913 57.6071 63.3913 59.8884C63.3913 62.1697 61.5635 64.0272 59.3187 64.0272C57.0739 64.0272 55.2461 62.1697 55.2461 59.8884C55.2461 57.6071 57.0739 55.7496 59.3187 55.7496Z" fill="#BDD074"/>
</g>
<defs>
<clipPath id="clip0">
<rect x="0.673828" y="0.289062" width="78.1931" height="79.4651" fill="white"/>
</clipPath>
</defs>
</svg>
