<svg width="79" height="80" viewBox="0 0 79 80" fill="none" xmlns="http://www.w3.org/2000/svg">
<path d="M26.8044 6.91211C23.2042 6.91211 20.2883 9.8755 20.2883 13.5342V36.7115C18.4964 36.7115 17.0302 38.2015 17.0302 40.0226C17.0302 41.8437 18.4964 43.3336 20.2883 43.3336H59.3849C61.1768 43.3336 62.6429 41.8437 62.6429 40.0226C62.6429 38.2015 61.1768 36.7115 59.3849 36.7115V13.5342C59.3849 9.8755 56.4689 6.91211 52.8688 6.91211H39.8366V36.7115H30.0624V6.91211H26.8044ZM10.5141 13.5342C6.914 13.5342 3.99805 16.4976 3.99805 20.1563V53.2668C3.99805 56.9255 6.914 59.8889 10.5141 59.8889H33.3205V66.511H30.0624C28.264 66.511 26.8044 67.9943 26.8044 69.822C26.8044 71.6497 28.264 73.1331 30.0624 73.1331H49.6107C51.4092 73.1331 52.8688 71.6497 52.8688 69.822C52.8688 67.9943 51.4092 66.511 49.6107 66.511H46.3527V59.8889H69.159C72.7591 59.8889 75.6751 56.9255 75.6751 53.2668V20.1563C75.6751 16.4976 72.7591 13.5342 69.159 13.5342C67.3606 13.5342 65.901 15.0176 65.901 16.8453C65.901 18.673 67.3606 20.1563 69.159 20.1563V53.2668H10.5141V20.1563C12.3126 20.1563 13.7722 18.673 13.7722 16.8453C13.7722 15.0176 12.3126 13.5342 10.5141 13.5342Z" fill="#BDD074"/>
</svg>
