<svg width="79" height="80" viewBox="0 0 79 80" fill="none" xmlns="http://www.w3.org/2000/svg">
<path d="M13.8775 10.3516C10.2936 10.3516 7.35504 13.3315 7.35504 16.9737L7.32959 56.6998C7.32959 60.3585 10.2455 63.3283 13.8457 63.3283H18.7264C19.6256 63.3283 20.3554 64.07 20.3554 64.9839V71.8905C20.3554 74.8406 23.8644 76.3175 25.917 74.2315L35.6912 64.2984C36.3037 63.6759 37.1313 63.3283 37.9947 63.3283H65.9681C69.5519 63.3283 72.4842 60.3484 72.4842 56.7062V16.9737C72.4842 13.3315 69.5519 10.3516 65.9681 10.3516H13.8775ZM39.5155 20.2912C45.1813 20.0793 49.6778 24.5162 49.6778 30.2178V33.5289C51.4763 33.5289 52.9359 35.0122 52.9359 36.8399V50.0841C52.9359 51.9118 51.4763 53.3952 49.6778 53.3952H30.1296C28.3311 53.3952 26.8715 51.9118 26.8715 50.0841V36.8399C26.8715 35.0122 28.3311 33.5289 30.1296 33.5289V30.6641C30.1296 25.2538 34.1984 20.4898 39.5155 20.2912ZM39.9037 26.9068C38.0466 26.9068 36.6457 28.3306 36.6457 30.2178V33.5289H43.1618V30.2178C43.1618 28.3306 41.7608 26.9068 39.9037 26.9068ZM39.9037 40.151C39.0396 40.151 38.2109 40.4998 37.5999 41.1208C36.9889 41.7417 36.6457 42.5839 36.6457 43.462C36.6457 44.3402 36.9889 45.1824 37.5999 45.8033C38.2109 46.4242 39.0396 46.7731 39.9037 46.7731C40.7678 46.7731 41.5965 46.4242 42.2075 45.8033C42.8185 45.1824 43.1618 44.3402 43.1618 43.462C43.1618 42.5839 42.8185 41.7417 42.2075 41.1208C41.5965 40.4998 40.7678 40.151 39.9037 40.151Z" fill="#BDD074"/>
</svg>
